# xmcd
# Track frame offsets:
# 150
# 10151
# 16294
# 27790
# 38926
# 46547
# 56604
# 66951
# 75143
# 81629
# 89754
# 101927
# 109114
# 119271
# 130102
# 140169
# 147911
# 156335
# 164761
# 177015
# 183136
# 191094
# 197923
# 203987
# 211549
# 213056
# 219817
# 229378
# 236721
# 242535
# 254711
# 262651
# 270567
# 280637
# 289276
# 298457
# 308050
# 316965
# 329121
# 337141
# 345794
#
# Disc length: 4757 seconds
# Revision: 0
# Processed by: cddbd v1.5PL3 Copyright (c) Steve Scherf et al.
# Submitted via: VisiTrax 2.9.9.209 - For more info visit www.synapsa.com
#
DISCID=6a129329
DTITLE=Various Artist - GrandMaster RnB
DYEAR=2003
DGENRE=RnB
TTITLE0=Ms Dynamite - Dy-Na-Mi-Tee
TTITLE1=Usher - You Make Me Wanna
TTITLE2=Craig David - 7 Days
TTITLE3=Nelly Ft Kelly Rowland - Dilemma
TTITLE4=Sweetbox - Everythings Gonna Be Alright
TTITLE5=TLC - Waterfalls
TTITLE6=Beyonce Knowles - Work It Out
TTITLE7=Aaliyah - More Than A Woman
TTITLE8=Missy Elliot - Get Ur Freak On
TTITLE9=Blackstreet Ft Dr Dre - No Diggity
TTITLE10=TLC - Unpretty
TTITLE11=Ashanti - Foolish
TTITLE12=Tatyana Ali Ft Will Smith - Boy You Knock Me Out
TTITLE13=Aaliyah - Try Again
TTITLE14=Brandy and Monica - The Boy Is Mine
TTITLE15=Lutricia McNeal - Stranded
TTITLE16=N SYNC - Girlfriend
TTITLE17=Jennifer Lopez - If You Had My Love
TTITLE18=Ms Dynamite - It Takes More
TTITLE19=Spooks - Karma Hotel
TTITLE20=Beverly Knight - Shoulda Woulda Coulda
TTITLE21=Jennifer Lopez - I'm Gonna Be Alright
TTITLE22=Angie Stone Ft Alicia Keys and Eve - Brotha Pt2
TTITLE23=Brownstone - If You Love Me
TTITLE24=Sporty Theivz - No Pigeons
TTITLE25=TLC - No Scrubs
TTITLE26=Pink - Most Girls
TTITLE27=Blue - All Rise
TTITLE28=Mya - Case Of The Ex
TTITLE29=Destinys Child - Independant Woman
TTITLE30=Chante Moore - Straight Up
TTITLE31=Eve - Who's That Girl
TTITLE32=Destinys Child - Bootylicious
TTITLE33=Christina Aguilera Ft Redman - Dirrty
TTITLE34=Jennifer Lopez - Jenny From The Block
TTITLE35=Christina Millian - AM To PM
TTITLE36=Jennifer Lopez - Play
TTITLE37=Nelly Ft dani Stephenson - Hot In Here
TTITLE38=Pink - There You Go
TTITLE39=Craig David - Whats Your Flava
TTITLE40=Christina Millian - When You Look At Me
EXTD=
EXTT0=
EXTT1=
EXTT2=
EXTT3=
EXTT4=
EXTT5=
EXTT6=
EXTT7=
EXTT8=
EXTT9=
EXTT10=
EXTT11=
EXTT12=
EXTT13=
EXTT14=
EXTT15=
EXTT16=
EXTT17=
EXTT18=
EXTT19=
EXTT20=
EXTT21=
EXTT22=
EXTT23=
EXTT24=
EXTT25=
EXTT26=
EXTT27=
EXTT28=
EXTT29=
EXTT30=
EXTT31=
EXTT32=
EXTT33=
EXTT34=
EXTT35=
EXTT36=
EXTT37=
EXTT38=
EXTT39=
EXTT40=
PLAYORDER=
